<svg width="50" height="50" viewBox="0 0 50 50" fill="none" xmlns="http://www.w3.org/2000/svg">
<path d="M25 41.0058C16.1602 41.0058 8.99418 33.8398 8.99418 25C8.99418 16.1603 16.1602 8.99419 25 8.99419C33.8397 8.99419 41.0057 16.1603 41.0057 25C41.0057 33.8398 33.8397 41.0058 25 41.0058ZM49.6544 28.3884C49.6544 28.3884 49.9999 27.1795 49.9999 25C49.9999 23.1211 49.6544 21.6117 49.6544 21.6117L44.0281 20.4786C43.5413 18.4223 42.7299 16.4919 41.6509 14.7438L44.8292 9.96254C44.8292 9.96254 44.2188 8.86349 42.6776 7.32233C41.349 5.99373 40.0374 5.17074 40.0374 5.17074L35.2561 8.34908C33.508 7.27004 31.5776 6.45862 29.5213 5.97186L28.3883 0.345546C28.3883 0.345546 27.1795 0 25 0C23.121 0 21.6116 0.345546 21.6116 0.345546L20.4785 5.97186C18.4223 6.45862 16.4918 7.27004 14.7438 8.34908L9.96253 5.17074C9.96253 5.17074 8.86348 5.78113 7.32233 7.32233C5.99372 8.65094 5.17069 9.96254 5.17069 9.96254L8.34898 14.7438C7.27003 16.4919 6.45857 18.4223 5.97177 20.4786L0.345503 21.6117C0.345503 21.6117 0 22.8204 0 25C0 26.879 0.345503 28.3884 0.345503 28.3884L5.97177 29.5214C6.45857 31.5777 7.27003 33.5081 8.34898 35.2562L5.17069 40.0374C5.17069 40.0374 5.78113 41.1365 7.32233 42.6777C8.65093 44.0063 9.96253 44.8293 9.96253 44.8293L14.7438 41.651C16.4918 42.73 18.4223 43.5414 20.4785 44.0281L21.6116 49.6545C21.6116 49.6545 22.8204 50 25 50C26.8789 50 28.3883 49.6545 28.3883 49.6545L29.5213 44.0281C31.5776 43.5414 33.508 42.73 35.2561 41.651L40.0374 44.8293C40.0374 44.8293 41.1364 44.2188 42.6776 42.6777C44.0062 41.3491 44.8292 40.0374 44.8292 40.0374L41.6509 35.2562C42.7299 33.5081 43.5413 31.5777 44.0281 29.5214L49.6544 28.3884Z" fill="#7B673D"/>
<path d="M29.3297 27.0088L37.0458 25.231V24.7696L29.3297 22.9918C28.0459 22.696 27.0507 21.6816 26.7793 20.3924L25.2357 13.0579H24.7723L23.2287 20.3924C22.9573 21.6816 21.9621 22.696 20.6783 22.9918L12.9622 24.7696V25.231L20.6783 27.0088C21.9621 27.3045 22.9573 28.3189 23.2287 29.6082L24.7723 36.9426H25.2357L26.7793 29.6082C27.0507 28.3189 28.0459 27.3045 29.3297 27.0088Z" fill="#BDA272"/>
</svg>
