<svg width="50" height="50" viewBox="0 0 50 50" fill="none" xmlns="http://www.w3.org/2000/svg">
<g clip-path="url(#clip0_5_790)">
<path d="M21.147 39.6069V26.9311C22.153 27.7637 23.0017 28.7774 23.6417 29.9253C24.1027 30.7522 24.3161 31.6948 24.3161 32.6416V40.0384C23.2286 39.9927 22.1692 39.8454 21.147 39.6069ZM8.77515 24.2321C8.77515 20.4851 10.1775 15.4653 11.5269 11.8293C11.6223 11.5482 11.7024 11.2796 11.7788 11.0143C12.9826 10.7553 14.1514 10.5439 15.2617 10.3742V36.9381C11.325 34.0938 8.77515 29.5346 8.77515 24.2321ZM24.3161 9.66778V16.1967C24.3161 17.1823 24.0976 18.1655 23.6128 19.0236C22.9763 20.1504 22.1379 21.1462 21.147 21.9663V9.75827C22.5689 9.67732 23.6644 9.66446 24.3161 9.66778ZM28.8457 9.75841V21.9663C27.8548 21.1462 27.0164 20.1504 26.3799 19.0236C25.8951 18.1655 25.6767 17.1823 25.6767 16.1967V9.66778C26.329 9.66446 27.4245 9.67742 28.8457 9.75841ZM38.4659 11.8293C39.8152 15.4653 41.2175 20.4851 41.2175 24.2321C41.2175 29.5346 38.6678 34.0938 34.731 36.9381V10.3745C35.8414 10.5443 37.0103 10.7558 38.2141 11.0148C38.2904 11.28 38.3705 11.5483 38.4659 11.8293ZM26.351 29.9253C26.991 28.7774 27.8397 27.7637 28.8457 26.9311V39.6069C27.8234 39.8454 26.7641 39.9927 25.6767 40.0384V32.6416C25.6767 31.6948 25.89 30.7522 26.351 29.9253ZM16.6199 24.7356L16.8016 24.7775C17.8714 25.0239 18.8738 25.435 19.7889 25.9755V39.2274C18.674 38.8657 17.6114 38.3955 16.6199 37.8208V24.7356ZM16.8016 24.12L16.6199 24.1619V10.1833C17.7621 10.0346 18.8267 9.92721 19.7889 9.85106V22.922C18.8738 23.4624 17.8714 23.8735 16.8016 24.12ZM33.3728 24.1619L33.1911 24.12C32.1213 23.8735 31.1189 23.4624 30.2038 22.922V9.85129C31.1661 9.92749 32.2306 10.0348 33.3728 10.1837V24.1619ZM33.1911 24.7775L33.3728 24.7356V37.8208C32.3813 38.3955 31.3187 38.8657 30.2038 39.2274V25.9755C31.1189 25.435 32.1214 25.0239 33.1911 24.7775ZM47.1806 24.2224C47.1806 20.8791 45.4719 16.2373 44.0784 12.6385C45.1773 13.0176 46.2783 13.442 47.368 13.9231L46.2907 11.3382C45.2362 10.8918 44.1742 10.4998 43.1165 10.151C42.9106 9.60656 42.7322 9.11655 42.5969 8.70118C42.0596 7.05169 43.5751 4.92455 45.4264 4.73675V2.02045C45.4264 2.02045 37.0097 1.27912 37.7571 8.72353C30.7179 7.26079 24.9951 7.55088 24.9951 7.55088C24.9951 7.55088 19.2737 7.26083 12.2357 8.72293C12.9826 1.27912 4.56633 2.02045 4.56633 2.02045V4.73675C6.41767 4.92455 7.9331 7.05169 7.3958 8.70118C7.2606 9.11632 7.08229 9.60606 6.87656 10.15C5.818 10.4991 4.75496 10.8915 3.69957 11.3382L2.62219 13.9231C3.71284 13.4416 4.81484 13.0169 5.91475 12.6375C4.52115 16.2364 2.81207 20.8789 2.81207 24.2224C2.81207 36.884 11.7909 47.2323 24.3161 47.6246V47.6382H24.8077V47.6399C24.8524 47.6402 24.8962 47.6433 24.941 47.6433C24.9596 47.6433 24.9778 47.642 24.9964 47.6419C25.0149 47.642 25.0331 47.6433 25.0517 47.6433C25.0965 47.6433 25.1403 47.6402 25.185 47.6399V47.6382H25.6767V47.6246C38.2019 47.2323 47.1806 36.884 47.1806 24.2224Z" fill="#B28AB3"/>
<path d="M49.0455 24.1439C48.8785 24.1789 48.9468 24.1645 48.7799 24.1995C49.3692 29.3631 48.5274 34.2644 46.2789 38.4646C43.6214 43.429 39.0731 46.2096 36.9248 47.3053C36.9853 47.4566 36.9665 47.4097 37.027 47.5609C52.696 43.5589 50.3649 29.134 49.0455 24.1439Z" fill="#BDA272"/>
<path d="M3.72107 38.4633C1.47261 34.2631 0.630787 29.3617 1.22018 24.1981C1.05322 24.1632 1.12144 24.1775 0.954525 24.1425C-0.364951 29.1327 -2.69593 43.5576 12.973 47.5595C13.0335 47.4083 13.0147 47.4552 13.0752 47.3039C10.9269 46.2082 6.37855 43.4276 3.72107 38.4633Z" fill="#BDA272"/>
</g>
<defs>
<clipPath id="clip0_5_790">
<rect width="50" height="50" fill="white"/>
</clipPath>
</defs>
</svg>
