<svg width="50" height="50" viewBox="0 0 50 50" fill="none" xmlns="http://www.w3.org/2000/svg">
<g clip-path="url(#clip0_5_627)">
<path d="M29.9061 18.8654V15.0573L32.7662 13.4609C32.8883 13.3928 33.0258 13.5216 32.9656 13.6478L31.3436 17.0496L32.9923 19.9119C32.9204 19.994 32.9215 19.9927 32.8497 20.0748L29.9061 18.8654ZM20.9223 18.8654L17.9787 20.0748C17.9068 19.9927 17.9079 19.994 17.8361 19.9119L19.4848 17.0496L17.8628 13.6478C17.8026 13.5216 17.9401 13.3928 18.0622 13.4609L20.9223 15.0573V18.8654ZM36.0103 31.6031C36.0103 31.6031 45.7543 26.305 45.8284 14.4863L41.8271 13.5971L45.4579 10.4479C45.4579 10.4479 43.4202 3.11216 36.3808 0L34.9729 6.89119L29.8323 10.1359V11.1747C29.8323 12.2054 29.5749 12.5893 28.7764 12.789V9.96687L25.4142 7.00232L22.052 9.96687V12.789C21.2535 12.5893 20.9961 12.2054 20.9961 11.1747V10.1359L15.8554 6.89119L14.4476 0C7.40819 3.11216 5.3705 10.4479 5.3705 10.4479L9.00133 13.5971L5 14.4863C5.0741 26.305 14.8181 31.6031 14.8181 31.6031L17.8561 23.9338L21.0053 22.7112L21.0169 21.8118C21.0516 20.6597 22.052 20.8194 22.052 20.8194V23.3673L23.7099 24.3043V35.6415L22.5601 36.349C22.5469 36.5196 22.5418 36.5849 22.5286 36.7555L23.5247 37.605V45.793L22.0056 47.5343L22.3021 48.09H23.4506L25.4142 50.0536L27.3778 48.09H28.5264L28.8227 47.5343L27.3037 45.793V37.605L28.2998 36.7555C28.2866 36.5849 28.2815 36.5196 28.2683 36.349L27.1184 35.6415V24.3043L28.7764 23.3673V20.8194C28.7764 20.8194 29.7767 20.6597 29.8115 21.8118L29.8231 22.7112L32.9723 23.9338L36.0103 31.6031Z" fill="#D17158"/>
<path d="M41.5818 31.7096C39.8884 33.7808 34.1341 41.0811 32.5142 43.1379C32.6381 43.3377 32.6397 43.3402 32.7636 43.54L36.7178 42.7175L36.7919 46.3484L43.0903 38.7532L38.7556 39.8647L41.7967 31.8347C41.6732 31.7628 41.7054 31.7815 41.5818 31.7096Z" fill="#BDA272"/>
<path d="M9.03778 31.8348L12.0789 39.8647L7.74414 38.7533L14.0425 46.3484L14.1166 42.7176L18.0709 43.54C18.1948 43.3403 18.1964 43.3377 18.3203 43.1379C16.7003 41.0811 10.946 33.7808 9.25261 31.7096C9.1291 31.7816 9.16129 31.7628 9.03778 31.8348Z" fill="#BDA272"/>
</g>
<defs>
<clipPath id="clip0_5_627">
<rect width="50" height="50" fill="white"/>
</clipPath>
</defs>
</svg>
