<svg width="50" height="50" viewBox="0 0 50 50" fill="none" xmlns="http://www.w3.org/2000/svg">
<g clip-path="url(#clip0_5_584)">
<path d="M29.708 39.9917L29.5346 39.6538C27.7294 40.2266 25.9983 40.3865 24.5415 40.3634C23.304 40.3093 21.9156 40.1116 20.4729 39.6538L20.2996 39.9917C20.2996 39.9917 24.8623 43.0959 24.8623 49.9801H25.1778C25.1778 43.0959 29.708 39.9917 29.708 39.9917Z" fill="#BDA272"/>
<path d="M9.98842 29.668L10.3263 29.4946C9.75344 27.6894 9.59361 25.9584 9.61665 24.5015C9.67083 23.264 9.86852 21.8757 10.3263 20.4329L9.98842 20.2596C9.98842 20.2596 6.88417 24.8223 0 24.8223V25.1378C6.88417 25.1378 9.98842 29.668 9.98842 29.668Z" fill="#BDA272"/>
<path d="M40.0116 20.2596L39.6737 20.4329C40.2465 22.2382 40.4064 23.9692 40.3833 25.4261C40.3292 26.6635 40.1315 28.0519 39.6737 29.4946L40.0116 29.668C40.0116 29.668 43.1158 25.1053 50 25.1053V24.7897C43.1158 24.7897 40.0116 20.2596 40.0116 20.2596Z" fill="#BDA272"/>
<path d="M19.5065 15.9599V19.5807H16.1538L5.29114 6.63937L19.5065 15.9599Z" fill="#8B8C8E"/>
<path d="M15.8792 30.3791H19.5001V33.7318L6.55872 44.5945L15.8792 30.3791Z" fill="#8B8C8E"/>
<path d="M37.2214 21.1564L35.6625 21.9736H27.9981V14.3092L28.8153 12.7503C28.8153 12.7503 27.6963 12.3731 25.0058 12.3731C22.7678 12.3731 21.1963 12.7503 21.1963 12.7503L22.0135 14.3092V21.9736H14.349L12.7901 21.1564C12.7901 21.1564 12.413 22.2754 12.413 24.9659C12.413 27.2038 12.7901 28.7754 12.7901 28.7754L14.349 27.9582H22.0135V35.6227L21.1963 37.1816C21.1963 37.1816 22.3152 37.5587 25.0058 37.5587C27.2437 37.5587 28.8153 37.1816 28.8153 37.1816L27.9981 35.6227V27.9582H35.6625L37.2214 28.7754C37.2214 28.7754 37.5986 27.6564 37.5986 24.9659C37.5986 22.728 37.2214 21.1564 37.2214 21.1564Z" fill="#8B8C8E"/>
<path d="M30.4796 15.9599V19.5807H33.8323L44.695 6.63937L30.4796 15.9599Z" fill="#8B8C8E"/>
<path d="M34.1152 30.3791H30.4943V33.7318L43.4357 44.5945L34.1152 30.3791Z" fill="#8B8C8E"/>
<path d="M20.2996 9.90824L20.4729 10.2461C22.2782 9.67326 24.0092 9.51344 25.466 9.53647C26.7035 9.59065 28.0919 9.7883 29.5346 10.2461L29.708 9.90824C29.708 9.90824 25.1452 6.804 25.1452 -0.0801697H24.8297C24.8297 6.804 20.2996 9.90824 20.2996 9.90824Z" fill="#BDA272"/>
</g>
<defs>
<clipPath id="clip0_5_584">
<rect width="50" height="50" fill="white"/>
</clipPath>
</defs>
</svg>
