<svg width="50" height="50" viewBox="0 0 50 50" fill="none" xmlns="http://www.w3.org/2000/svg">
<g clip-path="url(#clip0_5_791)">
<path d="M23.486 20.9468C23.486 20.9468 24.4809 16.6284 24.8657 12.8027H25.1342C25.519 16.6283 26.5139 20.9468 26.5139 20.9468C29.3824 32.3389 25 41.6732 25 41.6732C25 41.6732 20.6175 32.3389 23.486 20.9468ZM18.9841 21.982C17.9307 24.7114 14.6819 35.2999 23.486 44.2455L24.734 50.1223H25.2659L26.5139 44.2455C35.318 35.2999 32.0692 24.7114 31.0157 21.982C31.1514 21.9141 31.1172 21.9312 31.2529 21.8633C41.4811 33.143 28.9044 44.2455 28.9044 44.2455C42.7689 37.1898 44.9999 28.0709 44.9999 28.0709H40.2191C43.0079 23.1415 42.0006 14.344 42.0006 14.344L35.5262 14.5883L34.3969 16.2038C31.5284 9.29501 25 0 25 0C25 0 18.4715 9.29501 15.603 16.2038L14.4737 14.5883L7.99926 14.344C7.99926 14.344 6.99203 23.1415 9.78085 28.0709H5C5 28.0709 7.23107 37.1898 21.0956 44.2455C21.0956 44.2455 8.51884 33.143 18.747 21.8633C18.8827 21.9312 18.8484 21.9141 18.9841 21.982Z" fill="#808B47"/>
<path d="M9.60057 11.6865C9.60057 11.6865 10.6756 6.17829 17.5633 1.94155C17.85 2.24087 17.7918 2.18008 18.0785 2.47931C16.7564 4.25271 14.7064 7.50799 13.485 11.9438L9.60057 11.6865Z" fill="#BDA272"/>
<path d="M19.7485 45.766C19.7485 45.766 13.6462 46.3289 9.20822 42.4911C9.20822 42.4911 6.48994 40.342 6.43445 34.6621C6.43445 34.6621 8.76441 42.0558 19.7485 45.766Z" fill="#BDA272"/>
<path d="M32.4325 1.94159C39.3202 6.17829 40.3952 11.6865 40.3952 11.6865L36.5108 11.9438C35.2895 7.50798 33.2394 4.25275 31.9172 2.47933C32.204 2.18009 32.1457 2.24086 32.4325 1.94159Z" fill="#BDA272"/>
<path d="M43.5674 34.6621C43.5119 40.342 40.7936 42.4911 40.7936 42.4911C36.3556 46.3289 30.2533 45.766 30.2533 45.766C41.2374 42.0558 43.5674 34.6621 43.5674 34.6621Z" fill="#BDA272"/>
</g>
<defs>
<clipPath id="clip0_5_791">
<rect width="50" height="50" fill="white"/>
</clipPath>
</defs>
</svg>
