<svg width="50" height="50" viewBox="0 0 50 50" fill="none" xmlns="http://www.w3.org/2000/svg">
<g clip-path="url(#clip0_5_679)">
<path d="M4.41663 21.5272C3.9047 23.3817 3.625 25.3336 3.625 27.3515C3.625 31.7072 4.90517 35.7634 7.09784 39.1627L9.26761 36.9637L11.0489 35.1584C9.78111 32.843 9.05646 30.1819 9.05646 27.3515C9.05646 26.9877 9.07272 26.6278 9.0962 26.2699L4.41663 21.5272Z" fill="#5A382C"/>
<path d="M23.8566 11.252C24.2298 11.2254 24.6052 11.207 24.985 11.207C25.3522 11.207 25.7154 11.2242 26.0766 11.2491L30.7524 6.5102C28.9164 5.98756 26.9836 5.70187 24.985 5.70187C22.9752 5.70187 21.0319 5.99075 19.1866 6.51906L23.8566 11.252Z" fill="#5A382C"/>
<path d="M16.0606 27.3511C16.0606 28.1759 16.1789 28.971 16.3828 29.7304L18.7437 27.3376L16.3883 24.9504C16.1807 25.7161 16.0606 26.5186 16.0606 27.3511Z" fill="#BDA272"/>
<path d="M27.3315 18.626C26.5822 18.4193 25.7978 18.2994 24.984 18.2994C24.1441 18.2994 23.3346 18.4252 22.564 18.6449L24.9384 21.0513L27.3315 18.626Z" fill="#BDA272"/>
<path d="M32.1831 28.3869L33.5804 29.803C33.7972 29.022 33.9213 28.2015 33.9213 27.3503C33.9213 26.506 33.7986 25.6922 33.5853 24.917L31.1724 27.3624L32.1804 28.384L32.1831 28.3869Z" fill="#BDA272"/>
<path d="M22.5871 36.062C23.352 36.2782 24.155 36.4025 24.988 36.4025C25.8095 36.4025 26.6013 36.2808 27.3568 36.0703L24.9678 33.6491L22.5871 36.062Z" fill="#BDA272"/>
<path d="M36.7092 45.4374L32.7609 41.4359C30.4602 42.7451 27.8101 43.4953 24.9891 43.4953C22.1883 43.4953 19.5556 42.7564 17.2664 41.4646L15.0213 43.7399L13.3162 45.4681C16.6741 47.6979 20.6833 49 24.9891 49C29.3148 49 33.3417 47.6864 36.7092 45.4374Z" fill="#5A382C"/>
<path d="M42.2876 38.5225L42.8943 39.1373C45.077 35.7431 46.351 31.6965 46.351 27.3517C46.351 25.3224 46.0681 23.36 45.5506 21.4961L40.877 26.2327C40.9022 26.6029 40.9195 26.9751 40.9195 27.3517C40.9195 30.1711 40.2009 32.8228 38.9423 35.1319L42.2876 38.5225Z" fill="#5A382C"/>
<path d="M48.4337 3.5873C46.8358 1.96782 45.4353 3.45177 45.4353 3.45177C45.4353 3.45177 46.3329 3.87118 47.2433 4.79383C48.1218 5.68421 48.5675 6.6262 48.5675 6.6262C48.5675 6.6262 50.0317 5.20675 48.4337 3.5873Z" fill="#BDA272"/>
<path d="M27.0368 25.7431L26.4065 25.9173L26.5784 25.2785L36.0131 15.7166L36.4715 16.1812L27.0368 25.7431ZM47.7524 16.8263L44.0728 17.1489C43.4665 15.8434 42.5163 14.5515 41.712 13.5799L47.918 7.2902C47.918 7.2902 47.5042 6.3805 46.5938 5.45782C45.8743 4.72875 44.7858 4.11581 44.7858 4.11581L38.5798 10.4055C37.621 9.59029 36.3463 8.6272 35.0582 8.01284L35.3765 4.28356L34.6762 4.29645L27.6622 11.405C27.6622 11.405 30.5202 11.6564 33.8731 13.8335L8.06543 39.9892L6.34656 46.2477L12.5218 44.5057L38.3295 18.35C40.3606 21.5018 40.705 24.5745 40.705 24.5745L47.7397 17.5361L47.7524 16.8263Z" fill="#5A382C"/>
<path d="M4.56428 3.45198C4.56428 3.45198 3.16375 1.96803 1.56585 3.58748C-0.0320911 5.20697 1.43212 6.62638 1.43212 6.62638C1.43212 6.62638 1.87782 5.68443 2.75636 4.79404C3.6667 3.87142 4.56428 3.45198 4.56428 3.45198Z" fill="#BDA272"/>
<path d="M21.6556 24.4118L13.5345 16.1812L13.9929 15.7166L22.114 23.9472L24.113 21.9213L16.1329 13.8336C19.4859 11.6565 22.3438 11.4051 22.3438 11.4051L15.3298 4.29654L14.6295 4.2836L14.9478 8.01289C13.6597 8.62724 12.3849 9.59033 11.4263 10.4056L5.22026 4.11581C5.22026 4.11581 4.13161 4.7288 3.41225 5.4579C2.50184 6.38054 2.08801 7.29025 2.08801 7.29025L8.2941 13.58C7.48974 14.5516 6.53946 15.8435 5.93324 17.149L2.25357 16.8264L2.26629 17.5361L9.30099 24.5746C9.30099 24.5746 9.64539 21.5019 11.6765 18.35L19.6566 26.4378L19.6795 26.4146L21.6556 24.4118Z" fill="#5A382C"/>
<path d="M43.652 46.2481L41.9331 39.9896L30.3136 28.2134L26.5786 31.9987L26.545 32.0328L25.8572 32.7298L37.4767 44.506L43.652 46.2481Z" fill="#5A382C"/>
</g>
<defs>
<clipPath id="clip0_5_679">
<rect width="50" height="50" fill="white"/>
</clipPath>
</defs>
</svg>
