<svg width="50" height="50" viewBox="0 0 50 50" fill="none" xmlns="http://www.w3.org/2000/svg">
<path d="M26.5347 46.0452L26.5336 46.0459C26.1871 46.2695 25.8293 46.4744 25.5103 46.6184C25.1545 46.7789 24.9959 46.7945 25 46.7945C25.0003 46.7945 24.9998 46.7944 24.9985 46.7942C24.9809 46.7916 24.8206 46.7677 24.4897 46.6184C24.1707 46.4744 23.8129 46.2695 23.4664 46.0459C16.6641 41.6573 11.1443 36.9338 7.33877 32.0694C3.53382 27.2059 1.5 22.2793 1.5 17.4397C1.5 9.06701 7.21085 3.5 14.2045 3.5C18.4775 3.5 21.7199 5.82836 23.6783 9.478C23.9383 9.9627 24.4429 10.2662 24.9929 10.2688C25.543 10.2713 26.0504 9.97265 26.315 9.49042C28.3269 5.82422 31.552 3.5 35.8202 3.5C42.7875 3.5 48.5 9.06526 48.5 17.4397C48.5 22.2803 46.4715 27.2071 42.6701 32.0699C38.868 36.9337 33.3487 41.6569 26.5347 46.0452Z" fill="#FBF7ED" stroke="#BDA272" stroke-width="3" stroke-linejoin="round"/>
</svg>
