<svg width="50" height="50" viewBox="0 0 50 50" fill="none" xmlns="http://www.w3.org/2000/svg">
<g clip-path="url(#clip0_5_792)">
<path d="M25.0762 0.477955C25.0762 0.477955 23.6179 0 22.2878 0C21.1108 0 19.5255 0.477955 19.5255 0.477955V9.92148H25.0762V0.477955Z" fill="#43A2C8"/>
<path d="M18.412 2.80475L13.2684 4.74284C13.0279 4.83349 12.8706 5.04999 12.8706 5.29046V9.92103H18.412V2.80475Z" fill="#43A2C8"/>
<path d="M31.5348 13.3031V3.28794C31.5348 3.02788 31.3513 2.79836 31.0826 2.72245L26.1805 1.33705V14.7304L30.887 14.0102C31.2608 13.953 31.5348 13.6538 31.5348 13.3031Z" fill="#43A2C8"/>
<path d="M37.9939 13.032V8.15274C37.9939 7.91228 37.8366 7.69577 37.596 7.60512L32.6396 5.73758V14.7307L37.3914 13.7308C37.7438 13.6567 37.9939 13.3666 37.9939 13.032Z" fill="#43A2C8"/>
<path d="M25.8588 27.237L25.072 33.8427L24.2851 27.237L19.0828 28.2276L25.072 25.3341L31.0611 28.2276L25.8588 27.237ZM34.072 28.8187C35.8424 27.3623 36.9566 25.3427 37.1937 23.1609L37.8054 15.8087H25.4755L27.743 21.6953L24.055 17.4976H18.1296L16.2865 16.3618H21.9599C23.6784 16.3618 25.0715 15.072 25.072 13.4807V11.0487H13.0127C11.8201 12.4515 11.5906 13.0516 10.3981 14.4544L12.5876 23.9203C13.0398 25.653 14.0535 27.2163 15.4928 28.4004L15.8066 28.6586L20.9631 44.3641L22.4973 34.5783L25.072 50L27.6588 34.515L29.245 44.3641L34.072 28.8187Z" fill="#43A2C8"/>
<path d="M40.4659 42.4669C40.2352 42.9085 39.8987 43.2929 39.4813 43.5402C39.7284 43.1263 39.9257 42.7199 40.0537 42.2973C40.1835 41.8767 40.2481 41.4463 40.2481 41.0156C40.248 40.9381 40.2451 40.8606 40.2408 40.7831C40.2257 40.7944 40.2101 40.8051 40.1936 40.8147C39.8138 41.0327 39.1973 40.6775 38.8164 40.0215C38.4355 39.3653 38.4345 38.6567 38.8143 38.4387C38.9998 38.3322 39.2419 38.3627 39.4855 38.4982C39.484 38.4958 39.4827 38.4935 39.4813 38.4911C39.8991 38.7379 40.236 39.1224 40.4667 39.5641C40.6969 40.0071 40.818 40.5114 40.8174 41.0156C40.8173 41.5199 40.6961 42.024 40.4659 42.4669ZM34.1917 37.8826C32.4519 39.6129 32.4519 42.4184 34.1917 44.1487C35.9315 45.8791 38.7524 45.8791 40.4921 44.1487C42.232 42.4184 42.232 39.6129 40.4921 37.8826C38.7524 36.1522 35.9315 36.1522 34.1917 37.8826Z" fill="#BDA272"/>
<path d="M42.8575 34.5144C43.1045 34.1005 43.3019 33.6942 43.4299 33.2715C43.5596 32.8508 43.6243 32.4205 43.6243 31.9899C43.6241 31.9016 43.6206 31.8135 43.6151 31.7253C43.5939 31.7431 43.5713 31.7591 43.5471 31.773C43.1674 31.991 42.5508 31.6358 42.17 30.9797C41.7891 30.3236 41.7881 29.615 42.1678 29.397C42.3584 29.2876 42.6086 29.3226 42.8587 29.4675L42.8575 29.4653C43.2752 29.7121 43.6122 30.0966 43.8428 30.5383C44.073 30.9813 44.1942 31.4856 44.1935 31.9899C44.1934 32.494 44.0723 32.9982 43.8421 33.4412C43.6113 33.8826 43.2748 34.2671 42.8575 34.5144ZM41.04 28.0514C38.853 28.0514 37.08 29.8147 37.08 31.9899C37.08 34.165 38.853 35.9282 41.04 35.9282C43.227 35.9282 45 34.165 45 31.9899C45 29.8147 43.227 28.0514 41.04 28.0514Z" fill="#BDA272"/>
<path d="M39.8232 21.5765C39.9787 21.4591 40.2248 21.5011 40.4635 21.6602C40.7788 21.8484 41.0479 22.1221 41.2473 22.4452C41.4841 22.83 41.6162 23.2891 41.6153 23.7502C41.6154 24.2113 41.4834 24.6702 41.2466 25.0549C41.0092 25.4391 40.6741 25.754 40.2793 25.9383C40.3968 25.7549 40.5079 25.58 40.6029 25.4007C40.6984 25.2222 40.7804 25.0425 40.8458 24.8602C40.9781 24.4964 41.0459 24.1235 41.0461 23.7502C41.0455 23.5108 41.0171 23.2718 40.9621 23.0351C40.957 23.0394 40.9526 23.0444 40.9472 23.0484C40.7119 23.2262 40.2696 23.0407 39.9593 22.6342C39.6489 22.2278 39.588 21.7542 39.8232 21.5765ZM41.3813 26.0475C42.657 24.7786 42.657 22.7214 41.3813 21.4525C40.6356 20.711 39.6193 20.4036 38.6485 20.5288L38.2532 24.4375C38.1738 25.2221 37.9925 25.9841 37.7186 26.708C38.9228 27.2524 40.3908 27.0326 41.3813 26.0475Z" fill="#BDA272"/>
<path d="M8.759 22.4449C8.95664 22.1247 9.22265 21.853 9.53439 21.6649C9.77542 21.5016 10.0251 21.4575 10.1823 21.5762C10.4176 21.7539 10.3566 22.2274 10.0462 22.6339C9.7358 23.0403 9.29349 23.2258 9.05829 23.0481C9.05319 23.0443 9.04897 23.0395 9.04412 23.0353C8.98922 23.2718 8.96082 23.5107 8.96023 23.7499C8.96036 24.1232 9.02825 24.4961 9.16058 24.8599C9.2259 25.0422 9.30801 25.2219 9.4035 25.4004C9.4984 25.5797 9.60954 25.7546 9.72702 25.9379C9.33223 25.7537 8.99707 25.4388 8.75971 25.0546C8.52291 24.6698 8.39092 24.211 8.391 23.7499C8.39016 23.2887 8.52223 22.8297 8.759 22.4449ZM11.9997 26.8218C11.7766 26.324 11.5979 25.8037 11.4671 25.2654L10.3234 20.558C9.70119 20.6754 9.10665 20.9733 8.62506 21.4522C7.34926 22.7211 7.34926 24.7783 8.62506 26.0472C9.53781 26.955 10.8561 27.2129 11.9997 26.8218Z" fill="#BDA272"/>
<path d="M11.1676 40.0214C10.7868 40.6775 10.1702 41.0327 9.79052 40.8146C9.7798 40.8085 9.76951 40.8019 9.75942 40.795C9.75554 40.8685 9.75288 40.9421 9.75271 41.0156C9.75271 41.4463 9.81736 41.8766 9.94711 42.2973C10.0751 42.72 10.2725 43.1262 10.5196 43.5402C10.1022 43.2929 9.76562 42.9084 9.5349 42.4669C9.30471 42.024 9.18361 41.5198 9.18353 41.0156C9.18281 40.5114 9.30404 40.007 9.53422 39.5641C9.6979 39.2506 9.91534 38.9662 10.177 38.7391C10.5151 38.417 10.9015 38.2846 11.1698 38.4386C11.5495 38.6566 11.5485 39.3653 11.1676 40.0214ZM9.50873 37.8826C7.7689 39.6129 7.7689 42.4183 9.50873 44.1487C11.2485 45.8791 14.0693 45.8791 15.8092 44.1487C17.549 42.4183 17.549 39.6129 15.8092 37.8826C14.0693 36.1522 11.2485 36.1522 9.50873 37.8826Z" fill="#BDA272"/>
<path d="M7.81318 30.9797C7.43232 31.6358 6.81575 31.991 6.43606 31.7729C6.41779 31.7624 6.40066 31.7505 6.38416 31.7378C6.37914 31.8217 6.37585 31.9058 6.37568 31.9899C6.37568 32.4205 6.44033 32.8508 6.57008 33.2715C6.69806 33.6942 6.89545 34.1005 7.14251 34.5144C6.72519 34.2671 6.38859 33.8826 6.15786 33.4411C5.92764 32.9982 5.80654 32.494 5.80645 31.9898C5.80578 31.4856 5.92697 30.9813 6.15715 30.5382C6.33281 30.2018 6.57033 29.8988 6.85811 29.6642C7.18745 29.3663 7.55646 29.2483 7.81537 29.397C8.19506 29.615 8.19404 30.3236 7.81318 30.9797ZM12.9199 31.9898C12.9199 29.8147 11.1471 28.0514 8.95999 28.0514C6.77292 28.0514 5 29.8147 5 31.9898C5 34.165 6.77292 35.9282 8.95999 35.9282C11.1471 35.9282 12.9199 34.165 12.9199 31.9898Z" fill="#BDA272"/>
</g>
<defs>
<clipPath id="clip0_5_792">
<rect width="50" height="50" fill="white"/>
</clipPath>
</defs>
</svg>
