<svg width="50" height="50" viewBox="0 0 50 50" fill="none" xmlns="http://www.w3.org/2000/svg">
<g clip-path="url(#clip0_5_635)">
<path d="M49.9515 2L38.1367 21.7358L38.9316 18.7358C38.9316 18.7358 36.8317 14.0858 30.0817 8.63586L28.8317 8.43587V19.6857L27.6317 18.6358V7.78586L28.5817 7.38603L25.0317 5.18575L21.4817 7.38603L22.4317 7.78586V18.6358L21.2318 19.6857V8.43587L19.9818 8.63586C13.2318 14.0858 11.1318 18.7358 11.1318 18.7358L11.9267 21.7358L0.111743 2C0.0121882 4.0048 -0.0559262 6.70164 0.0633782 9.51033L6.09671 17.6599C5.98386 17.7509 6.03343 17.7109 5.92058 17.8019L0.158902 11.3985C0.305614 13.4619 0.568406 15.319 1.01015 17.1459L6.44818 22.153C6.35749 22.2634 6.39538 22.2175 6.30429 22.3279L1.47085 18.991C2.02465 20.74 2.78239 22.2947 3.74609 24.0146C3.96334 24.3346 4.09877 24.5191 4.09877 24.5191L8.44572 27.1066C8.38365 27.2319 8.40743 27.1839 8.34536 27.3093L4.88191 26.12C6.49292 28.4829 8.74196 30.8164 11.2318 32.8357V36.8133C11.2318 37.4756 11.0613 38.1267 10.7366 38.7039L9.88185 40.2234L22.2317 47.7734L22.8318 27.5857H17.3318C14.6818 25.7357 14.4318 23.0857 14.4318 23.0857H22.1317C21.8185 22.5731 21.9401 21.907 22.4143 21.5382L22.6317 21.3691L25.0317 25.3524L27.4317 21.3691L27.6492 21.5382C28.1234 21.907 28.245 22.5731 27.9317 23.0857H35.6316C35.6316 23.0857 35.3817 25.7357 32.7317 27.5857H27.2317L27.8317 47.7734L40.1816 40.2234L39.3269 38.7039C39.0022 38.1267 38.8316 37.4756 38.8316 36.8133V32.8357C41.3215 30.8164 43.5707 28.4829 45.1816 26.12L41.7181 27.3093C41.6561 27.1839 41.6799 27.2319 41.6179 27.1066L45.9649 24.5191C45.9649 24.5191 46.1002 24.3346 46.3173 24.0146C47.2809 22.2947 48.0387 20.74 48.5926 18.991L43.759 22.3279C43.6683 22.2175 43.706 22.2634 43.6153 22.153L49.0533 17.1459C49.495 15.319 49.7579 13.4619 49.9044 11.3985L44.1431 17.8019C44.0299 17.7109 44.0797 17.7509 43.9665 17.6599L49.9999 9.51033C50.1193 6.70164 50.0511 4.0048 49.9515 2Z" fill="#C0AF71"/>
</g>
<defs>
<clipPath id="clip0_5_635">
<rect width="50" height="50" fill="white"/>
</clipPath>
</defs>
</svg>
