<svg width="50" height="50" viewBox="0 0 50 50" fill="none" xmlns="http://www.w3.org/2000/svg">
<g clip-path="url(#clip0_5_789)">
<path d="M24.9925 8.97224H25.0028L29.3469 4.75268C29.3469 4.75268 28.6378 1.77887 25.0028 0H24.9925C21.3576 1.77887 20.6484 4.75268 20.6484 4.75268L24.9925 8.97224Z" fill="#BDA272"/>
<path d="M36.1147 25.409C32.8722 23.0529 31.0143 24.7997 30.1007 26.3456C30.0967 26.3524 30.0875 26.3479 30.0892 26.3402L31.1836 21.2567C31.1843 21.2532 31.1855 21.2507 31.1821 21.2496C31.09 21.2172 28.7005 20.389 26.3355 20.6938C26.3322 20.6943 26.3296 20.697 26.3292 20.7003L25.0069 35.3677C25.0061 35.3762 24.9939 35.3762 24.9931 35.3677L23.6708 20.7003C23.6705 20.697 23.6678 20.6943 23.6646 20.6938C21.2995 20.389 18.91 21.2172 18.8178 21.2496C18.8145 21.2507 18.8157 21.2532 18.8164 21.2567L19.9108 26.3402C19.9125 26.3479 19.9033 26.3524 19.8993 26.3456C18.9857 24.7997 17.1278 23.0529 13.8853 25.409L13.5956 25.6195C13.6725 23.4096 15.1036 19.3315 24.6349 19.3315H25.3651C34.9096 19.3315 36.3339 23.4118 36.4068 25.6213L36.1147 25.409ZM48.7423 31.3284C47.0961 33.5452 44.2733 31.3372 44.2733 31.3372L42.3599 29.9469C42.3574 29.9451 42.3564 29.9419 42.3573 29.9391L42.9583 28.0023C43.3304 26.8033 43.8869 25.6716 44.6074 24.6493L45.2333 23.7609C45.2347 23.7591 45.2366 23.7579 45.2388 23.7579L46.9274 23.7023C46.9301 23.7023 46.9313 23.7035 46.9324 23.701C46.956 23.6453 47.7503 21.7303 45.8512 20.3504L45.8458 20.3465C43.962 18.9776 42.419 20.3481 42.374 20.3887C42.372 20.3906 42.3735 20.3914 42.3743 20.394L42.8675 22.0349C42.8681 22.037 42.8678 22.0393 42.8665 22.0411L42.2405 22.9294C41.5202 23.9517 40.645 24.8519 39.6476 25.5965L38.0363 26.7993C38.0339 26.8011 38.0306 26.8011 38.0281 26.7993L37.3743 26.3242C37.3721 26.3226 37.371 26.3196 37.3717 26.3169C39.3969 17.6731 32.3908 15.6707 27.9725 15.2513C27.9691 15.251 27.9666 15.2483 27.9664 15.2449L27.4608 8.29713C27.4604 8.29114 27.4532 8.28838 27.449 8.29256L25.0049 10.7228C25.0022 10.7255 24.9979 10.7255 24.9951 10.7228L22.551 8.29256C22.5468 8.28838 22.5397 8.29114 22.5392 8.29713L22.0336 15.2449C22.0334 15.2483 22.0309 15.251 22.0275 15.2513C17.6092 15.6707 10.6031 17.6731 12.6283 26.3169C12.629 26.3196 12.628 26.3226 12.6257 26.3242L11.9719 26.7993C11.9694 26.8011 11.9662 26.8011 11.9637 26.7993L10.3525 25.5965C9.35498 24.8519 8.4798 23.9517 7.75943 22.9294L7.13351 22.0411C7.13223 22.0393 7.13189 22.037 7.13249 22.0349L7.62568 20.394C7.62649 20.3914 7.62806 20.3906 7.62602 20.3887C7.58098 20.3481 6.03807 18.9776 4.15413 20.3465L4.14874 20.3504C2.24969 21.7303 3.04401 23.6453 3.06765 23.701C3.06871 23.7035 3.06994 23.7023 3.07266 23.7023L4.76121 23.7579C4.76338 23.7579 4.76537 23.7591 4.76664 23.7609L5.39261 24.6493C6.11307 25.6716 6.6696 26.8033 7.04169 28.0023L7.6427 29.9391C7.64359 29.9419 7.64253 29.9451 7.64011 29.9469L5.72672 31.3372C5.72672 31.3372 2.90393 33.5452 1.2577 31.3284L1 31.6025C1 31.6025 2.69776 37.8533 7.73774 34.1912L15.8963 28.263C15.8963 28.263 18.6585 26.1047 20.3115 28.2052C20.3122 28.2061 20.3128 28.2073 20.313 28.2084L24.3565 46.9903L23.9504 47.4028L16.4812 29.1563C16.4795 29.1521 16.4745 29.1506 16.4708 29.1532L13.2768 31.4185C13.2738 31.4206 13.273 31.4246 13.2747 31.4278L18.9413 41.3254C18.9455 41.3328 18.9355 41.3401 18.93 41.3336L11.5336 32.6929C11.5313 32.6902 11.5272 32.6897 11.5243 32.6919L8.38201 35.0307C8.37844 35.0334 8.37819 35.0387 8.3815 35.0417L24.9944 50H25.0056L41.6185 35.0417C41.6218 35.0387 41.6216 35.0334 41.618 35.0307L38.4758 32.6919C38.4728 32.6897 38.4688 32.6902 38.4664 32.6929L31.07 41.3336C31.0645 41.3401 31.0545 41.3328 31.0587 41.3254L36.7252 31.4278C36.7271 31.4246 36.7262 31.4206 36.7232 31.4185L33.5291 29.1532C33.5255 29.1506 33.5205 29.1521 33.5188 29.1563L26.0496 47.4028L25.6435 46.9903L29.687 28.2084C29.6872 28.2073 29.6878 28.2061 29.6885 28.2052C31.3415 26.1047 34.1037 28.263 34.1037 28.263L42.2623 34.1912C47.3022 37.8533 49 31.6025 49 31.6025L48.7423 31.3284Z" fill="#4A4B45"/>
</g>
<defs>
<clipPath id="clip0_5_789">
<rect width="50" height="50" fill="white"/>
</clipPath>
</defs>
</svg>
