<svg width="50" height="50" viewBox="0 0 50 50" fill="none" xmlns="http://www.w3.org/2000/svg">
<g clip-path="url(#clip0_5_647)">
<path d="M27.2956 11.6432C27.3125 11.3886 27.5816 11.2472 27.783 11.387L29.8474 12.8201C29.9655 12.7179 29.9599 12.7228 30.078 12.6206L25.0704 0.16739V0L25.0391 0.0836951L25.0077 0V0.16739L20 12.6206C20.1182 12.7228 20.1125 12.7179 20.2307 12.8201L22.2951 11.387C22.4965 11.2472 22.7656 11.3886 22.7825 11.6432L24.4987 45.2509L21.5569 49.4904C21.7491 49.7561 21.7334 49.7343 21.9255 50L25.039 48.7144L28.1525 50C28.3447 49.7343 28.329 49.7561 28.5211 49.4904L25.5794 45.2509L27.2956 11.6432Z" fill="#BDA272"/>
<path d="M28.9713 15.028C28.8649 15.0467 28.8773 15.0446 28.7708 15.0633L27.9736 24.0282C30.1795 24.4471 31.9641 25.2512 33.4108 26.2693L27.6337 43.1739L28.2064 43.4318L35.3585 27.9636C38.75 31.5636 39.4274 36.3361 39.6058 37.6188L27.6382 46.074L28.3379 47.0195L48 33.7871L47.9267 32.9734L42.5149 29.5519C41.718 27.3093 40.1607 24.8314 37.768 22.7524L39.886 18.1718C39.9706 17.9959 40.2025 17.9815 40.3061 18.1457L41.3671 19.8277C41.4804 19.7929 41.475 19.7945 41.5883 19.7597L41.5755 9.28764L41.6232 9.16847L41.577 9.21797L41.5786 9.14835L41.5308 9.26756L34.4126 16.5292C34.4676 16.6398 34.4649 16.6346 34.5199 16.7452L36.3986 16.3865C36.5819 16.3515 36.7332 16.5385 36.6725 16.7252L35.2396 20.9181C33.8875 20.1053 32.3538 19.4194 30.6268 18.925L30.627 18.9246L28.9713 15.028Z" fill="#497A5C"/>
<path d="M22.3937 46.0965L10.3942 37.6188C10.5727 36.336 11.25 31.5636 14.6415 27.9635L21.7936 43.4317L22.3664 43.1739L16.5892 26.2693C18.0359 25.2512 19.8205 24.4471 22.0264 24.0282V24.0281L22.0264 24.0282L21.2292 15.0633C21.1228 15.0445 21.1351 15.0467 21.0287 15.028L19.373 18.9246L19.3732 18.925C17.6462 19.4194 16.1125 20.1053 14.7604 20.9181L13.3274 16.7252C13.2669 16.5385 13.4181 16.3515 13.6014 16.3865L15.4801 16.7452C15.5351 16.6346 15.5325 16.6398 15.5875 16.5292L8.4692 9.26751L8.42144 9.14835L8.42298 9.21797L8.37681 9.16843L8.42456 9.2876L8.41174 19.7596C8.52502 19.7945 8.51965 19.7928 8.63293 19.8277L9.69396 18.1456C9.7975 17.9815 10.0294 17.9959 10.1141 18.1718L12.232 22.7524C9.83938 24.8314 8.28202 27.3093 7.4851 29.5519L2.07336 32.9734L2 33.787L21.6944 47.0412L22.3937 46.0965Z" fill="#497A5C"/>
</g>
<defs>
<clipPath id="clip0_5_647">
<rect width="50" height="50" fill="white"/>
</clipPath>
</defs>
</svg>
