<svg width="50" height="50" viewBox="0 0 50 50" fill="none" xmlns="http://www.w3.org/2000/svg">
<g clip-path="url(#clip0_5_598)">
<path d="M39.7427 21.291C45.0739 30.4591 41.0374 36.852 41.0374 36.852C41.2548 27.8972 35.7045 25.0394 35.7045 25.0394L35.7038 25.0395C36.9004 26.6747 37.6144 28.7253 37.6144 30.9535C37.6144 36.2941 33.5235 40.6235 28.4771 40.6235C23.4308 40.6235 19.4694 36.2926 19.3399 30.9535C19.2856 28.7145 20.4809 25 23.8678 21.5009C26.0892 19.2059 27.6893 16.7747 28.4746 15.1555C31.6062 8.69771 29.3193 1.31696 27.0949 0C27.0949 0 30.1887 7.18026 25.3891 13.2923C23.0241 16.304 19.7526 18.7462 17.028 21.2811C16.3375 21.8889 14.0197 24.6057 13.1608 26.0535C11.8678 28.2328 11.2079 30.7402 11.2079 33.3874C11.2079 42.5623 18.7896 50 28.1421 50C37.4946 50 45.3298 42.4556 45.3298 33.2808C45.3298 28.5111 42.8304 23.46 39.7427 21.291Z" fill="#C25359"/>
<path d="M30.1346 29.2488L28.378 21.0611L26.6215 29.2488C26.5364 29.6453 26.2243 29.9573 25.8218 30.0483L17.2395 31.9882L25.8217 33.928C26.2243 34.0189 26.5364 34.331 26.6215 34.7275L28.378 42.9152L30.1346 34.7275C30.2197 34.331 30.5317 34.0189 30.9343 33.928L39.5165 31.9882L30.9343 30.0483C30.5317 29.9573 30.2197 29.6453 30.1346 29.2488Z" fill="#BDA272"/>
<path d="M36.3817 17.0186L35.69 13.7945L34.9983 17.0186C34.9088 17.4361 34.5802 17.7646 34.1563 17.8604L30.7637 18.6272L34.1563 19.3941C34.5802 19.4899 34.9088 19.8184 34.9983 20.2359L35.69 23.46L36.3817 20.2359C36.4713 19.8184 36.7998 19.4899 37.2237 19.3941L40.6163 18.6272L37.2237 17.8604C36.7998 17.7646 36.4713 17.4361 36.3817 17.0186Z" fill="#BDA272"/>
<path d="M20.064 10.7342C20.3085 11.707 19.9785 12.7894 19.1539 13.9989C16.7963 17.457 12.2887 21.7977 9.84914 26.6851C6.15441 34.0872 8.74433 41.6497 11.3044 44.7412C11.3044 44.7412 1.46358 38.2383 6.37174 27.1021C7.41702 24.7306 9.58052 21.9203 13.734 18.2765C15.1619 17.0239 16.9274 15.4735 18.3978 13.8102C19.28 12.8122 19.8738 11.8091 20.064 10.7342Z" fill="#BDA272"/>
</g>
<defs>
<clipPath id="clip0_5_598">
<rect width="50" height="50" fill="white"/>
</clipPath>
</defs>
</svg>
