<svg width="50" height="50" viewBox="0 0 50 50" fill="none" xmlns="http://www.w3.org/2000/svg">
<path d="M41.3468 7.07961L41.3485 7.08037C42.5385 7.58699 43.1398 7.99248 43.487 8.44043C43.8017 8.84645 44.0479 9.47436 44.0479 10.7617V29.312C44.0479 33.419 42.9551 36.1508 40.2687 38.8152C37.4536 41.6072 32.8948 44.323 25.7926 48.1892C25.3502 48.4268 24.9305 48.5 24.7617 48.5C24.7119 48.5 24.5744 48.4884 24.373 48.4344C24.1804 48.3828 23.9657 48.302 23.757 48.1901C16.6535 44.2985 12.0944 41.5831 9.27815 38.7957C6.592 36.1371 5.5 33.4179 5.5 29.312V10.7617C5.5 9.47351 5.74653 8.83839 6.06265 8.42892C6.40804 7.98152 7.00672 7.57638 8.18774 7.08527L8.1905 7.08412C10.8578 5.9687 19.97 2.63241 22.5616 1.88677C23.3586 1.66978 24.1454 1.5 24.7617 1.5C25.4335 1.5 26.2055 1.6366 26.9172 1.86564C29.6147 2.78992 38.7124 5.95403 41.3468 7.07961Z" fill="#FBF7ED" stroke="#BDA272" stroke-width="3"/>
</svg>
