<svg width="50" height="50" viewBox="0 0 50 50" fill="none" xmlns="http://www.w3.org/2000/svg">
<path d="M10.7842 20.3971L10.7811 20.3962C11.4233 15.9728 13.8174 12.7848 14.7293 11.7069C14.6497 11.6087 14.6642 11.6265 14.5845 11.5283C11.1297 13.1947 8.83303 17.269 8.83303 17.269C9.22113 13.2749 12.009 9.81716 13.3753 8.34108C13.2867 8.23744 13.3124 8.26755 13.2238 8.16394C8.30732 11.1843 5.07529 16.2231 4.75867 22.6469L10.5137 21.9268C10.5779 21.4085 10.6675 20.8977 10.7842 20.3971Z" fill="#BDA272"/>
<path d="M19.8948 20.7692L24.6122 22.9487C24.6122 22.9487 24.5476 24.0384 23.3844 24.1666L25 29.423L26.6156 24.1666C25.4524 24.0384 25.3877 22.9487 25.3877 22.9487L30.1052 20.7692C33.1209 25.7906 31.2101 28.3388 28.916 29.6121C27.7068 30.2832 26.3534 30.6187 25 30.6187C23.6466 30.6187 22.2932 30.2832 21.084 29.6121C18.7899 28.3388 16.8792 25.7906 19.8948 20.7692ZM19.184 35.9908C19.184 35.9908 22.4151 44.9359 23.5783 50L23.8123 49.875C24.1918 49.6723 24.4467 49.2975 24.4942 48.8725L25 44.3393L25.5058 48.8725C25.5533 49.2975 25.8082 49.6723 26.1877 49.875L26.4217 50C27.5848 44.9359 30.816 35.9908 30.816 35.9908C33.8532 28.2637 38.8323 27.4833 38.8323 27.4833L49 24.8077C48.7203 24.3321 48.216 24.0345 47.6612 24.0167C43.6061 23.887 39.32 23.3323 39.32 23.3323C35.2227 22.8185 34.758 19.4231 34.758 19.4231L32.8839 9.12953C31.7854 2.87446 34.241 0 34.241 0C28.8127 1.60255 29.5236 10.5769 29.5236 10.5769L30.0405 17.5C27.526 15.2602 26.6415 12.1311 26.3839 10.9375C26.2718 10.938 26.2924 10.9379 26.1802 10.9384L25 16.0897L23.8198 10.9384C23.7076 10.9379 23.7282 10.938 23.6161 10.9375C23.3585 12.1311 22.474 15.2602 19.9595 17.5L20.4764 10.5769C20.4764 10.5769 21.1873 1.60255 15.759 0C15.759 0 18.2147 2.87446 17.1161 9.12953L15.242 19.4231C15.242 19.4231 14.7772 22.8185 10.6799 23.3323C10.6799 23.3323 6.39389 23.887 2.33875 24.0167C1.78403 24.0345 1.27963 24.3321 1 24.8077L11.1676 27.4833C11.1676 27.4833 16.1468 28.2637 19.184 35.9908Z" fill="#7A49AE"/>
<path d="M22.1238 23.4306C19.959 24.7607 21.2676 28.046 21.2676 28.046L21.0253 28.046C18.7796 25.1133 20.8314 22.7735 20.8314 22.7735L22.1238 23.4306Z" fill="#7A49AE"/>
<path d="M17.4903 36.162C18.0391 37.8573 19.3052 41.6101 19.9982 43.6584C12.2936 41.6828 6.48155 35.3395 5.06887 27.4309L11.466 29.1079C12.658 32.053 14.7874 34.5282 17.4903 36.162Z" fill="#BDA272"/>
<path d="M23.9364 5.79368C23.9364 4.18307 25.0027 2.40424 25.0027 2.40424C25.0027 2.40424 26.0689 4.18307 26.0689 5.79368C26.0689 7.05961 25.0027 10.7456 25.0027 10.7456C25.0027 10.7456 23.9364 7.05961 23.9364 5.79368Z" fill="#BDA272"/>
<path d="M28.9763 28.0459H28.7339C28.7339 28.0459 30.0426 24.7607 27.8778 23.4305L29.1702 22.7735C29.1702 22.7735 31.2219 25.1132 28.9763 28.0459Z" fill="#7A49AE"/>
<path d="M39.2149 20.3971L39.218 20.3962C38.5758 15.9728 36.1817 12.7848 35.2698 11.7069C35.3494 11.6087 35.3349 11.6265 35.4146 11.5283C38.8695 13.1947 41.1661 17.269 41.1661 17.269C40.778 13.2749 37.9901 9.81716 36.6238 8.34108C36.7124 8.23744 36.6867 8.26755 36.7753 8.16394C41.6918 11.1843 44.9238 16.2231 45.2404 22.6469L39.4854 21.9268C39.4212 21.4085 39.3317 20.8977 39.2149 20.3971Z" fill="#BDA272"/>
<path d="M38.5401 29.108L44.9372 27.431C43.5245 35.3396 37.7125 41.6829 30.0079 43.6586C30.7009 41.6103 31.967 37.8574 32.5158 36.1622C35.2186 34.5283 37.3481 32.0531 38.5401 29.108Z" fill="#BDA272"/>
</svg>
