<svg width="50" height="50" viewBox="0 0 50 50" fill="none" xmlns="http://www.w3.org/2000/svg">
<path d="M35.371 16.1665C35.371 16.1665 38.4796 18.8241 40.7248 23.4581C44.1433 30.5138 44.3934 38.4742 43.7482 42.0022C43.7482 42.0022 47.5795 34.0781 42.6965 23.5941C40.0262 17.8606 35.371 16.1665 35.371 16.1665Z" fill="#275FB8"/>
<path d="M22.7024 15.3703L24.2537 17.0767L21.2447 21.5757L20.2202 22.0142L12.36 15.8874L12.8326 12.1068L22.4642 4.21774L33.3033 12.371L33.6002 18.0539L33.355 19.2487L21.4096 32.6421L24.4089 36.5579L23.0588 49.3622L21.4538 50L19.8424 37.1753L15.6696 32.3835L28.339 16.6631L22.4501 11.4574L18.462 15.1634L20.2202 17.0767L22.7024 15.3703Z" fill="#BDA272"/>
<path d="M16.5923 0C15.4351 1.80159 15.6161 4.72052 17.8702 6.23792L20.3383 4.21851C16.8666 3.10325 16.5923 0 16.5923 0Z" fill="#275FB8"/>
<path d="M10.7029 28.2999C10.7029 26.003 11.5082 23.8892 12.8579 22.2036L12.8572 22.2035C12.8572 22.2035 6.59666 25.1494 6.84178 34.3803C6.84178 34.3803 3.52907 26.1619 10.205 16.5617C5.79226 19.3197 2 25.7822 2 30.6989C2 37.5459 6.63358 43.5095 13.1937 46.2815C13.4411 46.4554 13.5921 46.5547 13.5921 46.5547L5.73195 47.5889L20.0082 49.2595L18.5921 37.9896C14.0667 36.9372 10.7029 32.9996 10.7029 28.2999Z" fill="#275FB8"/>
<path d="M36.0427 41.7883L36.0406 41.7877C38.8153 38.8147 40.4875 34.9864 40.4875 30.8067C40.4875 28.0779 39.7431 25.4933 38.2847 23.2467C37.66 22.2844 36.3954 20.2617 35.3661 18.7758L35.1241 19.9547L33.0439 22.2871C37.5563 30.9987 32.6434 35.4173 32.6434 35.4173C33.5538 30.0036 31.6091 26.3187 30.6855 24.9313L30.6592 24.9608C31.1391 26.2379 31.3389 27.3873 31.3148 28.2979C31.2134 32.1174 29.0292 35.4348 25.7999 37.1084L24.521 49.2376L38.6281 47.5868L30.7679 46.5526C30.7679 46.5526 34.0079 44.4399 36.0427 41.7883Z" fill="#275FB8"/>
</svg>
